<mxfile host="app.diagrams.net" modified="2021-01-12T07:23:29.173Z" agent="5.0 (Macintosh)" etag="vP02onKzZQknVwXU8D_w" version="14.1.1" type="github">
  <diagram id="iC_NfAitNRgo2J09mCaq" name="Page-1">
    <mxGraphModel dx="946" dy="623" grid="1" gridSize="10" guides="1" tooltips="1" connect="1" arrows="1" fold="1" page="1" pageScale="1" pageWidth="850" pageHeight="1100" math="0" shadow="0">
      <root>
        <mxCell id="0" />
        <mxCell id="1" parent="0" />
        <mxCell id="10z1liR8voffSjqADAh4-1" value="Define Team In essentials" style="rounded=1;whiteSpace=wrap;html=1;" vertex="1" parent="1">
          <mxGeometry x="360" y="300" width="120" height="60" as="geometry" />
        </mxCell>
        <mxCell id="10z1liR8voffSjqADAh4-2" value="Add Members to the team in essentials" style="rounded=1;whiteSpace=wrap;html=1;" vertex="1" parent="1">
          <mxGeometry x="360" y="440" width="120" height="60" as="geometry" />
        </mxCell>
        <mxCell id="10z1liR8voffSjqADAh4-4" value="Open People Corner for the team" style="rounded=1;whiteSpace=wrap;html=1;" vertex="1" parent="1">
          <mxGeometry x="360" y="570" width="120" height="60" as="geometry" />
        </mxCell>
        <mxCell id="10z1liR8voffSjqADAh4-5" value="Do you have Admin Access" style="rhombus;whiteSpace=wrap;html=1;" vertex="1" parent="1">
          <mxGeometry x="345" y="700" width="135" height="120" as="geometry" />
        </mxCell>
        <mxCell id="10z1liR8voffSjqADAh4-6" value="Select the team under which you want to add a team" style="rounded=1;whiteSpace=wrap;html=1;" vertex="1" parent="1">
          <mxGeometry x="352.5" y="890" width="120" height="60" as="geometry" />
        </mxCell>
        <mxCell id="10z1liR8voffSjqADAh4-7" value="Specify the team Name" style="rounded=1;whiteSpace=wrap;html=1;" vertex="1" parent="1">
          <mxGeometry x="352.5" y="1010" width="120" height="60" as="geometry" />
        </mxCell>
        <mxCell id="10z1liR8voffSjqADAh4-8" value="Add the members of the top team as members of the subteam" style="rounded=1;whiteSpace=wrap;html=1;" vertex="1" parent="1">
          <mxGeometry x="630" y="1010" width="120" height="60" as="geometry" />
        </mxCell>
        <mxCell id="10z1liR8voffSjqADAh4-9" value="They get the IBMManager or IBMTeam member role based on what is defined in the parent team " style="rounded=0;whiteSpace=wrap;html=1;" vertex="1" parent="1">
          <mxGeometry x="630" y="860" width="120" height="100" as="geometry" />
        </mxCell>
        <mxCell id="10z1liR8voffSjqADAh4-11" value="" style="endArrow=classic;html=1;exitX=0.5;exitY=1;exitDx=0;exitDy=0;" edge="1" parent="1" source="10z1liR8voffSjqADAh4-1">
          <mxGeometry width="50" height="50" relative="1" as="geometry">
            <mxPoint x="370" y="450" as="sourcePoint" />
            <mxPoint x="420" y="439" as="targetPoint" />
          </mxGeometry>
        </mxCell>
        <mxCell id="10z1liR8voffSjqADAh4-12" value="" style="endArrow=classic;html=1;exitX=0.5;exitY=1;exitDx=0;exitDy=0;entryX=0.5;entryY=0;entryDx=0;entryDy=0;" edge="1" parent="1" source="10z1liR8voffSjqADAh4-2" target="10z1liR8voffSjqADAh4-4">
          <mxGeometry width="50" height="50" relative="1" as="geometry">
            <mxPoint x="430" y="370" as="sourcePoint" />
            <mxPoint x="430" y="449" as="targetPoint" />
          </mxGeometry>
        </mxCell>
        <mxCell id="10z1liR8voffSjqADAh4-13" value="" style="endArrow=classic;html=1;exitX=0.5;exitY=1;exitDx=0;exitDy=0;entryX=0.5;entryY=0;entryDx=0;entryDy=0;" edge="1" parent="1">
          <mxGeometry width="50" height="50" relative="1" as="geometry">
            <mxPoint x="412" y="630" as="sourcePoint" />
            <mxPoint x="412" y="700" as="targetPoint" />
          </mxGeometry>
        </mxCell>
        <mxCell id="10z1liR8voffSjqADAh4-14" value="" style="endArrow=classic;html=1;exitX=0.5;exitY=1;exitDx=0;exitDy=0;entryX=0.5;entryY=0;entryDx=0;entryDy=0;" edge="1" parent="1">
          <mxGeometry width="50" height="50" relative="1" as="geometry">
            <mxPoint x="412" y="820" as="sourcePoint" />
            <mxPoint x="412" y="890" as="targetPoint" />
          </mxGeometry>
        </mxCell>
        <mxCell id="10z1liR8voffSjqADAh4-17" style="edgeStyle=orthogonalEdgeStyle;rounded=0;orthogonalLoop=1;jettySize=auto;html=1;exitX=0.5;exitY=1;exitDx=0;exitDy=0;" edge="1" parent="1" source="10z1liR8voffSjqADAh4-6" target="10z1liR8voffSjqADAh4-7">
          <mxGeometry relative="1" as="geometry" />
        </mxCell>
        <mxCell id="10z1liR8voffSjqADAh4-15" value="Yes" style="text;html=1;strokeColor=none;fillColor=none;align=center;verticalAlign=middle;whiteSpace=wrap;rounded=0;" vertex="1" parent="1">
          <mxGeometry x="410" y="840" width="40" height="10" as="geometry" />
        </mxCell>
        <mxCell id="10z1liR8voffSjqADAh4-16" value="" style="endArrow=classic;html=1;exitX=1;exitY=0.5;exitDx=0;exitDy=0;" edge="1" parent="1" source="10z1liR8voffSjqADAh4-7" target="10z1liR8voffSjqADAh4-8">
          <mxGeometry width="50" height="50" relative="1" as="geometry">
            <mxPoint x="422" y="830" as="sourcePoint" />
            <mxPoint x="422" y="900" as="targetPoint" />
          </mxGeometry>
        </mxCell>
        <mxCell id="10z1liR8voffSjqADAh4-18" value="" style="endArrow=classic;html=1;exitX=0.592;exitY=0;exitDx=0;exitDy=0;entryX=0.592;entryY=1.01;entryDx=0;entryDy=0;entryPerimeter=0;exitPerimeter=0;" edge="1" parent="1" source="10z1liR8voffSjqADAh4-8" target="10z1liR8voffSjqADAh4-9">
          <mxGeometry width="50" height="50" relative="1" as="geometry">
            <mxPoint x="482.5" y="1050" as="sourcePoint" />
            <mxPoint x="640" y="1050" as="targetPoint" />
          </mxGeometry>
        </mxCell>
        <mxCell id="10z1liR8voffSjqADAh4-19" value="No" style="text;html=1;strokeColor=none;fillColor=none;align=center;verticalAlign=middle;whiteSpace=wrap;rounded=0;" vertex="1" parent="1">
          <mxGeometry x="560" y="730" width="40" height="20" as="geometry" />
        </mxCell>
        <mxCell id="10z1liR8voffSjqADAh4-20" value="" style="endArrow=classic;html=1;exitX=1;exitY=0.5;exitDx=0;exitDy=0;" edge="1" parent="1" source="10z1liR8voffSjqADAh4-5" target="10z1liR8voffSjqADAh4-24">
          <mxGeometry width="50" height="50" relative="1" as="geometry">
            <mxPoint x="422" y="830" as="sourcePoint" />
            <mxPoint x="690" y="570" as="targetPoint" />
            <Array as="points">
              <mxPoint x="690" y="760" />
            </Array>
          </mxGeometry>
        </mxCell>
        <mxCell id="10z1liR8voffSjqADAh4-24" value="Get Admin Access to People Corner" style="rounded=1;whiteSpace=wrap;html=1;" vertex="1" parent="1">
          <mxGeometry x="630" y="570" width="120" height="60" as="geometry" />
        </mxCell>
        <mxCell id="10z1liR8voffSjqADAh4-25" value="" style="endArrow=classic;html=1;exitX=0;exitY=0.5;exitDx=0;exitDy=0;entryX=1;entryY=0.5;entryDx=0;entryDy=0;" edge="1" parent="1" source="10z1liR8voffSjqADAh4-24" target="10z1liR8voffSjqADAh4-4">
          <mxGeometry width="50" height="50" relative="1" as="geometry">
            <mxPoint x="422" y="640" as="sourcePoint" />
            <mxPoint x="422" y="710" as="targetPoint" />
          </mxGeometry>
        </mxCell>
        <mxCell id="10z1liR8voffSjqADAh4-26" value="End" style="ellipse;whiteSpace=wrap;html=1;aspect=fixed;" vertex="1" parent="1">
          <mxGeometry x="670" y="780" width="60" height="60" as="geometry" />
        </mxCell>
        <mxCell id="10z1liR8voffSjqADAh4-27" value="" style="endArrow=classic;html=1;entryX=0.5;entryY=1;entryDx=0;entryDy=0;" edge="1" parent="1" target="10z1liR8voffSjqADAh4-26">
          <mxGeometry width="50" height="50" relative="1" as="geometry">
            <mxPoint x="700" y="860" as="sourcePoint" />
            <mxPoint x="370" y="870" as="targetPoint" />
          </mxGeometry>
        </mxCell>
        <mxCell id="10z1liR8voffSjqADAh4-29" value="Start" style="ellipse;whiteSpace=wrap;html=1;aspect=fixed;" vertex="1" parent="1">
          <mxGeometry x="380" y="130" width="80" height="80" as="geometry" />
        </mxCell>
        <mxCell id="10z1liR8voffSjqADAh4-30" value="" style="endArrow=classic;html=1;entryX=0.5;entryY=0;entryDx=0;entryDy=0;exitX=0.5;exitY=1;exitDx=0;exitDy=0;" edge="1" parent="1" source="10z1liR8voffSjqADAh4-29" target="10z1liR8voffSjqADAh4-1">
          <mxGeometry width="50" height="50" relative="1" as="geometry">
            <mxPoint x="320" y="260" as="sourcePoint" />
            <mxPoint x="370" y="210" as="targetPoint" />
          </mxGeometry>
        </mxCell>
      </root>
    </mxGraphModel>
  </diagram>
</mxfile>
